<svg xmlns="http://www.w3.org/2000/svg" viewBox="0 0 384 512" color="white"><path id="struct1" fill="#ffffff" d="m120.19265 177.73779c2.99513-100.38703-55.915123-113.737792-55.915123-113.737792v31.26245c-23.443008-11.651074-45.948897-13.332814-45.948897-13.332814v255.179396s98.10414-11.41744 98.10414 84.40952c0 0 36.58424-153.37442 248.86103 26.48145 0-61.59342.37757-216.93925.37757-268.28471-195.71527-142.583908-245.47827-1.9775-245.47827-1.9775zm187.20631 173.82056-12.37599-97.65441h-.448l-40.72819 97.65441h-17.55994l-38.9362-97.65441h-.448l-14.17589 97.65441h-43.87514l28.8015-169.61925h43.42716l34.43518 90.6496 36.46566-90.6496h43.87513l25.6817 169.61925h-44.13938z" stroke-width=".067524"/></svg>
