<svg width="100%" height="100%" id="svg" viewBox="0 0 1440 590" xmlns="http://www.w3.org/2000/svg" class="transition duration-300 ease-in-out delay-150"><path d="M 0,600 L 0,112 C 91.56410256410254,136.1025641025641 183.12820512820508,160.2051282051282 263,144 C 342.8717948717949,127.7948717948718 411.0512820512821,71.2820512820513 491,71 C 570.9487179487179,70.7179487179487 662.6666666666666,126.66666666666666 733,135 C 803.3333333333334,143.33333333333334 852.2820512820513,104.05128205128204 930,98 C 1007.7179487179487,91.94871794871796 1114.2051282051284,119.12820512820514 1204,127 C 1293.7948717948716,134.87179487179486 1366.8974358974358,123.43589743589743 1440,112 L 1440,600 L 0,600 Z" stroke="none" stroke-width="0" fill="#4b89bf" fill-opacity="0.4" class="transition-all duration-300 ease-in-out delay-150 path-0" transform="rotate(-180 720 300)"></path><path d="M 0,600 L 0,262 C 88.31025641025641,238.38461538461536 176.62051282051283,214.76923076923075 260,232 C 343.37948717948717,249.23076923076925 421.8282051282051,307.3076923076923 490,306 C 558.1717948717949,304.6923076923077 616.0666666666667,243.99999999999997 680,215 C 743.9333333333333,186.00000000000003 813.9051282051281,188.6923076923077 915,208 C 1016.0948717948719,227.3076923076923 1148.3128205128205,263.2307692307692 1241,275 C 1333.6871794871795,286.7692307692308 1386.8435897435897,274.38461538461536 1440,262 L 1440,600 L 0,600 Z" stroke="none" stroke-width="0" fill="#4b89bf" fill-opacity="0.53" class="transition-all duration-300 ease-in-out delay-150 path-1" transform="rotate(-180 720 300)"></path><path d="M 0,600 L 0,412 C 80.9794871794872,404.43589743589746 161.9589743589744,396.8717948717949 249,405 C 336.0410256410256,413.1282051282051 429.1435897435897,436.9487179487179 500,441 C 570.8564102564103,445.0512820512821 619.4666666666667,429.33333333333337 686,416 C 752.5333333333333,402.66666666666663 836.9897435897437,391.71794871794873 923,399 C 1009.0102564102563,406.28205128205127 1096.574358974359,431.79487179487177 1183,437 C 1269.425641025641,442.20512820512823 1354.7128205128206,427.1025641025641 1440,412 L 1440,600 L 0,600 Z" stroke="none" stroke-width="0" fill="#4b89bf" fill-opacity="1" class="transition-all duration-300 ease-in-out delay-150 path-2" transform="rotate(-180 720 300)"></path></svg>
