<svg width="100%" height="100%" id="svg" viewBox="0 0 1440 690" xmlns="http://www.w3.org/2000/svg" class="transition duration-300 ease-in-out delay-150"><defs><linearGradient id="gradient" x1="0%" y1="50%" x2="100%" y2="50%"><stop offset="5%" stop-color="#000080"></stop><stop offset="95%" stop-color="#0693e3"></stop></linearGradient></defs><path d="M 0,700 L 0,105 C 71.21531100478472,119.34449760765551 142.43062200956945,133.68899521531102 247,123 C 351.56937799043055,112.31100478468899 489.4928229665071,76.58851674641149 590,76 C 690.5071770334929,75.41148325358851 753.5980861244019,109.95693779904306 852,131 C 950.4019138755981,152.04306220095694 1084.114832535885,159.58373205741626 1188,153 C 1291.885167464115,146.41626794258374 1365.9425837320575,125.70813397129187 1440,105 L 1440,700 L 0,700 Z" stroke="none" stroke-width="0" fill="url(#gradient)" fill-opacity="0.265" class="transition-all duration-300 ease-in-out delay-150 path-0"></path><defs><linearGradient id="gradient" x1="0%" y1="50%" x2="100%" y2="50%"><stop offset="5%" stop-color="#000080"></stop><stop offset="95%" stop-color="#0693e3"></stop></linearGradient></defs><path d="M 0,700 L 0,245 C 120.14354066985646,258.6937799043062 240.28708133971293,272.3875598086124 338,264 C 435.7129186602871,255.61244019138758 510.9952153110047,225.1435406698565 603,209 C 695.0047846889953,192.8564593301435 803.732057416268,191.03827751196172 887,196 C 970.267942583732,200.96172248803828 1028.0765550239234,212.70334928229664 1116,222 C 1203.9234449760766,231.29665071770336 1321.9617224880383,238.14832535885168 1440,245 L 1440,700 L 0,700 Z" stroke="none" stroke-width="0" fill="url(#gradient)" fill-opacity="0.4" class="transition-all duration-300 ease-in-out delay-150 path-1"></path><defs><linearGradient id="gradient" x1="0%" y1="50%" x2="100%" y2="50%"><stop offset="5%" stop-color="#000080"></stop><stop offset="95%" stop-color="#0693e3"></stop></linearGradient></defs><path d="M 0,700 L 0,385 C 62.44019138755979,396.933014354067 124.88038277511959,408.86602870813397 236,396 C 347.1196172248804,383.13397129186603 506.91866028708137,345.46889952153106 612,345 C 717.0813397129186,344.53110047846894 767.4449760765552,381.25837320574163 852,389 C 936.5550239234448,396.74162679425837 1055.3014354066984,375.4976076555024 1159,370 C 1262.6985645933016,364.5023923444976 1351.349282296651,374.7511961722488 1440,385 L 1440,700 L 0,700 Z" stroke="none" stroke-width="0" fill="url(#gradient)" fill-opacity="0.53" class="transition-all duration-300 ease-in-out delay-150 path-2"></path><defs><linearGradient id="gradient" x1="0%" y1="50%" x2="100%" y2="50%"><stop offset="5%" stop-color="#000080"></stop><stop offset="95%" stop-color="#0693e3"></stop></linearGradient></defs><path d="M 0,700 L 0,525 C 96.71770334928229,531.9473684210526 193.43540669856458,538.8947368421052 276,548 C 358.5645933014354,557.1052631578948 426.97607655502406,568.3684210526317 538,571 C 649.0239234449759,573.6315789473683 802.6602870813397,567.6315789473683 904,548 C 1005.3397129186603,528.3684210526317 1054.3827751196172,495.10526315789474 1135,489 C 1215.6172248803828,482.89473684210526 1327.8086124401914,503.9473684210526 1440,525 L 1440,700 L 0,700 Z" stroke="none" stroke-width="0" fill="url(#gradient)" fill-opacity="1" class="transition-all duration-300 ease-in-out delay-150 path-3"></path></svg>
