<svg width="100%" height="100%" id="svg" viewBox="0 0 1440 590" xmlns="http://www.w3.org/2000/svg" class="transition duration-300 ease-in-out delay-150"><path d="M 0,600 L 0,112 C 90.91025641025641,84.26410256410257 181.82051282051282,56.528205128205144 267,70 C 352.1794871794872,83.47179487179486 431.6282051282052,138.15128205128204 496,163 C 560.3717948717948,187.84871794871796 609.6666666666667,182.86666666666667 693,168 C 776.3333333333333,153.13333333333333 893.7051282051282,128.3820512820513 978,113 C 1062.2948717948718,97.61794871794872 1113.5128205128206,91.60512820512821 1185,93 C 1256.4871794871794,94.39487179487179 1348.2435897435898,103.1974358974359 1440,112 L 1440,600 L 0,600 Z" stroke="none" stroke-width="0" fill="#000435" fill-opacity="0.4" class="transition-all duration-300 ease-in-out delay-150 path-0"></path><path d="M 0,600 L 0,262 C 82.18717948717949,269.8871794871795 164.37435897435898,277.77435897435896 237,275 C 309.625641025641,272.22564102564104 372.68974358974356,258.7897435897436 446,259 C 519.3102564102564,259.2102564102564 602.8666666666667,273.0666666666667 692,270 C 781.1333333333333,266.9333333333333 875.8435897435897,246.9435897435897 963,254 C 1050.1564102564103,261.0564102564103 1129.7589743589745,295.1589743589744 1208,301 C 1286.2410256410255,306.8410256410256 1363.1205128205129,284.42051282051284 1440,262 L 1440,600 L 0,600 Z" stroke="none" stroke-width="0" fill="#000435" fill-opacity="0.53" class="transition-all duration-300 ease-in-out delay-150 path-1"></path><path d="M 0,600 L 0,412 C 66.92307692307693,421.75384615384615 133.84615384615387,431.5076923076923 217,417 C 300.15384615384613,402.4923076923077 399.53846153846143,363.723076923077 488,356 C 576.4615384615386,348.276923076923 654.0000000000002,371.59999999999997 737,403 C 819.9999999999998,434.40000000000003 908.4615384615383,473.8769230769231 985,464 C 1061.5384615384617,454.1230769230769 1126.1538461538462,394.8923076923077 1200,378 C 1273.8461538461538,361.1076923076923 1356.923076923077,386.55384615384617 1440,412 L 1440,600 L 0,600 Z" stroke="none" stroke-width="0" fill="#000435" fill-opacity="1" class="transition-all duration-300 ease-in-out delay-150 path-2"></path></svg>
